<svg width="102" height="102" viewBox="0 0 102 102" fill="none" xmlns="http://www.w3.org/2000/svg">
<g id="Maleable Reel">
<g id="Subtract">
<path fill-rule="evenodd" clip-rule="evenodd" d="M51 101C78.6142 101 101 78.6142 101 51C101 23.3858 78.6142 1 51 1C23.3858 1 1 23.3858 1 51C1 78.6142 23.3858 101 51 101ZM51 56C53.7614 56 56 53.7614 56 51C56 48.2386 53.7614 46 51 46C48.2386 46 46 48.2386 46 51C46 53.7614 48.2386 56 51 56ZM54.125 36.625C54.125 38.3509 52.7259 39.75 51 39.75C49.2741 39.75 47.875 38.3509 47.875 36.625C47.875 34.8991 49.2741 33.5 51 33.5C52.7259 33.5 54.125 34.8991 54.125 36.625ZM51 68.5C52.7259 68.5 54.125 67.1009 54.125 65.375C54.125 63.6491 52.7259 62.25 51 62.25C49.2741 62.25 47.875 63.6491 47.875 65.375C47.875 67.1009 49.2741 68.5 51 68.5ZM68.5 51C68.5 52.7259 67.1009 54.125 65.375 54.125C63.6491 54.125 62.25 52.7259 62.25 51C62.25 49.2741 63.6491 47.875 65.375 47.875C67.1009 47.875 68.5 49.2741 68.5 51ZM36.625 54.125C38.3509 54.125 39.75 52.7259 39.75 51C39.75 49.2741 38.3509 47.875 36.625 47.875C34.8991 47.875 33.5 49.2741 33.5 51C33.5 52.7259 34.8991 54.125 36.625 54.125ZM60.375 17.875C60.375 23.0527 56.1777 27.25 51 27.25C45.8223 27.25 41.625 23.0527 41.625 17.875C41.625 12.6973 45.8223 8.5 51 8.5C56.1777 8.5 60.375 12.6973 60.375 17.875ZM51 93.5C56.1777 93.5 60.375 89.3027 60.375 84.125C60.375 78.9473 56.1777 74.75 51 74.75C45.8223 74.75 41.625 78.9473 41.625 84.125C41.625 89.3027 45.8223 93.5 51 93.5ZM84.3746 42.5565C79.8906 45.1453 74.157 43.609 71.5681 39.125C68.9793 34.641 70.5156 28.9073 74.9996 26.3185C79.4836 23.7297 85.2173 25.266 87.8061 29.75C90.3949 34.234 88.8586 39.9677 84.3746 42.5565ZM14.1939 72.25C16.7827 76.734 22.5164 78.2703 27.0004 75.6815C31.4844 73.0927 33.0207 67.359 30.4319 62.875C27.8431 58.391 22.1094 56.8547 17.6254 59.4435C13.1414 62.0323 11.6051 67.766 14.1939 72.25ZM27.0004 26.3185C31.4844 28.9073 33.0207 34.641 30.4319 39.125C27.8431 43.609 22.1094 45.1453 17.6254 42.5565C13.1414 39.9677 11.6051 34.234 14.1939 29.75C16.7827 25.266 22.5164 23.7297 27.0004 26.3185ZM87.8061 72.25C90.3949 67.766 88.8586 62.0323 84.3746 59.4435C79.8906 56.8547 74.157 58.391 71.5681 62.875C68.9793 67.359 70.5156 73.0927 74.9996 75.6815C79.4836 78.2703 85.2173 76.734 87.8061 72.25Z" fill="#EEC905"/>
<path d="M84.3746 42.5565L84.8746 43.4225L84.3746 42.5565ZM30.4319 62.875L29.5659 63.375L30.4319 62.875ZM30.4319 39.125L31.2979 39.625L30.4319 39.125ZM84.3746 59.4435L84.8746 58.5775L84.3746 59.4435ZM100 51C100 78.062 78.062 100 51 100V102C79.1665 102 102 79.1665 102 51H100ZM51 2C78.062 2 100 23.938 100 51H102C102 22.8335 79.1665 0 51 0V2ZM2 51C2 23.938 23.938 2 51 2V0C22.8335 0 0 22.8335 0 51H2ZM51 100C23.938 100 2 78.062 2 51H0C0 79.1665 22.8335 102 51 102V100ZM55 51C55 53.2091 53.2091 55 51 55V57C54.3137 57 57 54.3137 57 51H55ZM51 47C53.2091 47 55 48.7909 55 51H57C57 47.6863 54.3137 45 51 45V47ZM47 51C47 48.7909 48.7909 47 51 47V45C47.6863 45 45 47.6863 45 51H47ZM51 55C48.7909 55 47 53.2091 47 51H45C45 54.3137 47.6863 57 51 57V55ZM51 40.75C53.2782 40.75 55.125 38.9032 55.125 36.625H53.125C53.125 37.7986 52.1736 38.75 51 38.75V40.75ZM46.875 36.625C46.875 38.9032 48.7218 40.75 51 40.75V38.75C49.8264 38.75 48.875 37.7986 48.875 36.625H46.875ZM51 32.5C48.7218 32.5 46.875 34.3468 46.875 36.625H48.875C48.875 35.4514 49.8264 34.5 51 34.5V32.5ZM55.125 36.625C55.125 34.3468 53.2782 32.5 51 32.5V34.5C52.1736 34.5 53.125 35.4514 53.125 36.625H55.125ZM53.125 65.375C53.125 66.5486 52.1736 67.5 51 67.5V69.5C53.2782 69.5 55.125 67.6532 55.125 65.375H53.125ZM51 63.25C52.1736 63.25 53.125 64.2014 53.125 65.375H55.125C55.125 63.0968 53.2782 61.25 51 61.25V63.25ZM48.875 65.375C48.875 64.2014 49.8264 63.25 51 63.25V61.25C48.7218 61.25 46.875 63.0968 46.875 65.375H48.875ZM51 67.5C49.8264 67.5 48.875 66.5486 48.875 65.375H46.875C46.875 67.6532 48.7218 69.5 51 69.5V67.5ZM65.375 55.125C67.6532 55.125 69.5 53.2782 69.5 51H67.5C67.5 52.1736 66.5486 53.125 65.375 53.125V55.125ZM61.25 51C61.25 53.2782 63.0968 55.125 65.375 55.125V53.125C64.2014 53.125 63.25 52.1736 63.25 51H61.25ZM65.375 46.875C63.0968 46.875 61.25 48.7218 61.25 51H63.25C63.25 49.8264 64.2014 48.875 65.375 48.875V46.875ZM69.5 51C69.5 48.7218 67.6532 46.875 65.375 46.875V48.875C66.5486 48.875 67.5 49.8264 67.5 51H69.5ZM38.75 51C38.75 52.1736 37.7986 53.125 36.625 53.125V55.125C38.9032 55.125 40.75 53.2782 40.75 51H38.75ZM36.625 48.875C37.7986 48.875 38.75 49.8264 38.75 51H40.75C40.75 48.7218 38.9032 46.875 36.625 46.875V48.875ZM34.5 51C34.5 49.8264 35.4514 48.875 36.625 48.875V46.875C34.3468 46.875 32.5 48.7218 32.5 51H34.5ZM36.625 53.125C35.4514 53.125 34.5 52.1736 34.5 51H32.5C32.5 53.2782 34.3468 55.125 36.625 55.125V53.125ZM51 28.25C56.73 28.25 61.375 23.605 61.375 17.875H59.375C59.375 22.5004 55.6254 26.25 51 26.25V28.25ZM40.625 17.875C40.625 23.605 45.27 28.25 51 28.25V26.25C46.3746 26.25 42.625 22.5004 42.625 17.875H40.625ZM51 7.5C45.27 7.5 40.625 12.145 40.625 17.875H42.625C42.625 13.2496 46.3746 9.5 51 9.5V7.5ZM61.375 17.875C61.375 12.145 56.73 7.5 51 7.5V9.5C55.6254 9.5 59.375 13.2496 59.375 17.875H61.375ZM59.375 84.125C59.375 88.7504 55.6254 92.5 51 92.5V94.5C56.73 94.5 61.375 89.855 61.375 84.125H59.375ZM51 75.75C55.6254 75.75 59.375 79.4996 59.375 84.125H61.375C61.375 78.395 56.73 73.75 51 73.75V75.75ZM42.625 84.125C42.625 79.4996 46.3746 75.75 51 75.75V73.75C45.27 73.75 40.625 78.395 40.625 84.125H42.625ZM51 92.5C46.3746 92.5 42.625 88.7504 42.625 84.125H40.625C40.625 89.855 45.27 94.5 51 94.5V92.5ZM70.7021 39.625C73.5671 44.5873 79.9123 46.2875 84.8746 43.4225L83.8746 41.6905C79.8689 44.0032 74.7468 42.6307 72.4341 38.625L70.7021 39.625ZM74.4996 25.4525C69.5373 28.3175 67.8371 34.6627 70.7021 39.625L72.4341 38.625C70.1214 34.6193 71.4939 29.4972 75.4996 27.1845L74.4996 25.4525ZM88.6721 29.25C85.8071 24.2877 79.4619 22.5875 74.4996 25.4525L75.4996 27.1845C79.5053 24.8718 84.6274 26.2443 86.9401 30.25L88.6721 29.25ZM84.8746 43.4225C89.8369 40.5575 91.5371 34.2123 88.6721 29.25L86.9401 30.25C89.2528 34.2557 87.8803 39.3778 83.8746 41.6905L84.8746 43.4225ZM26.5004 74.8155C22.4947 77.1282 17.3726 75.7557 15.0599 71.75L13.3279 72.75C16.1929 77.7123 22.5381 79.4125 27.5004 76.5475L26.5004 74.8155ZM29.5659 63.375C31.8786 67.3807 30.5061 72.5028 26.5004 74.8155L27.5004 76.5475C32.4627 73.6825 34.1629 67.3373 31.2979 62.375L29.5659 63.375ZM18.1254 60.3095C22.1311 57.9968 27.2532 59.3693 29.5659 63.375L31.2979 62.375C28.4329 57.4127 22.0877 55.7125 17.1254 58.5775L18.1254 60.3095ZM15.0599 71.75C12.7472 67.7443 14.1197 62.6222 18.1254 60.3095L17.1254 58.5775C12.1631 61.4425 10.4629 67.7877 13.3279 72.75L15.0599 71.75ZM31.2979 39.625C34.1629 34.6627 32.4627 28.3175 27.5004 25.4525L26.5004 27.1845C30.5061 29.4972 31.8785 34.6193 29.5659 38.625L31.2979 39.625ZM17.1254 43.4225C22.0877 46.2875 28.4329 44.5873 31.2979 39.625L29.5659 38.625C27.2532 42.6307 22.1311 44.0032 18.1254 41.6905L17.1254 43.4225ZM13.3279 29.25C10.4629 34.2123 12.1631 40.5575 17.1254 43.4225L18.1254 41.6905C14.1197 39.3778 12.7472 34.2557 15.0599 30.25L13.3279 29.25ZM27.5004 25.4525C22.5381 22.5875 16.1929 24.2877 13.3279 29.25L15.0599 30.25C17.3726 26.2443 22.4947 24.8718 26.5004 27.1845L27.5004 25.4525ZM83.8746 60.3095C87.8803 62.6222 89.2528 67.7443 86.9401 71.75L88.6721 72.75C91.5371 67.7877 89.8369 61.4425 84.8746 58.5775L83.8746 60.3095ZM72.4341 63.375C74.7468 59.3693 79.8689 57.9968 83.8746 60.3095L84.8746 58.5775C79.9123 55.7125 73.5671 57.4127 70.7021 62.375L72.4341 63.375ZM75.4996 74.8155C71.4939 72.5028 70.1214 67.3807 72.4341 63.375L70.7021 62.375C67.8371 67.3373 69.5373 73.6825 74.4996 76.5475L75.4996 74.8155ZM86.9401 71.75C84.6274 75.7557 79.5053 77.1282 75.4996 74.8155L74.4996 76.5475C79.4619 79.4125 85.8071 77.7123 88.6721 72.75L86.9401 71.75Z" fill="black"/>
</g>
</g>
</svg>
